<svg xmlns="http://www.w3.org/2000/svg" width="32" height="32" fill="none" style=""><rect id="backgroundrect" width="100%" height="100%" x="0" y="0" fill="none" stroke="none"/>






<g class="currentLayer" style=""><title>Layer 1</title><path d="M0.02465820004001778,15.5429 L7.333510000040018,9.14285 L21.951200000040018,10.0571 L22.864800000040017,24.6857 L16.469600000040018,32 C16.469600000040018,32 16.47050000004002,26.5152 10.987900000040018,21.0286 C5.505380000040017,15.5419 0.02465820004001778,15.5429 0.02465820004001778,15.5429 z" fill="#000000" id="svg_1" class="" fill-opacity="1"/><path d="M0.000017822440017766885,32 C0.000017822440017766885,32 -0.03287199995998226,24.7049 2.7271300000400176,21.9429 C5.487140000040018,19.1808 12.815200000040019,19.371 12.815200000040019,19.371 C12.815200000040019,19.371 12.814300000040017,26.5143 10.073400000040017,29.2571 C7.332620000040018,32 0.000017822440017766885,32 0.000017822440017766885,32 z" fill="#FFAC33" id="svg_2" class=""/><path d="M7.332650000040018,28.3428 C9.350930000040018,28.3428 10.987100000040018,26.7055 10.987100000040018,24.6857 C10.987100000040018,22.6659 9.350930000040018,21.0286 7.332650000040018,21.0286 C5.3143600000400175,21.0286 3.678220000040018,22.6659 3.678220000040018,24.6857 C3.678220000040018,26.7055 5.3143600000400175,28.3428 7.332650000040018,28.3428 z" fill="#FFCC4D" id="svg_3" class=""/><path d="M32.00010000004002,0 C32.00010000004002,0 22.86410000004002,0 11.900800000040018,9.14285 C6.4191600000400175,13.7143 6.4191600000400175,21.9429 8.246380000040018,23.7714 C10.073600000040019,25.6 18.296000000040017,25.6 22.86410000004002,20.1143 C32.00010000004002,9.14285 32.00010000004002,0 32.00010000004002,0 z" fill="#dadada" id="svg_4" class="" fill-opacity="1"/><path d="M23.777600000040017,4.57143 C22.294800000040016,4.57143 21.024900000040017,5.4592 20.451200000040018,6.72914 C20.90980000004002,6.5216 21.415000000040017,6.4 21.950400000040016,6.4 C23.968600000040016,6.4 25.60480000004002,8.03748 25.60480000004002,10.0571 C25.60480000004002,10.5929 25.483300000040018,11.0985 25.27680000004002,11.5566 C26.545800000040018,10.9833 27.432000000040016,9.71245 27.432000000040016,8.22857 C27.432000000040016,6.20891 25.795800000040018,4.57143 23.777600000040017,4.57143 z" fill="#000000" id="svg_5" class="" fill-opacity="1"/><path d="M6.4201700000400175,25.6 C6.4201700000400175,25.6 6.4201700000400175,21.9428 7.333770000040018,21.0285 C8.247380000040017,20.1142 19.21160000004002,10.9723 20.12430000004002,11.8857 C21.037000000040017,12.799 11.900900000040018,23.7714 10.987300000040017,24.6857 C10.073700000040018,25.6 6.4201700000400175,25.6 6.4201700000400175,25.6 z" fill="#000000" id="svg_6" class="" fill-opacity="1"/></g></svg>